Coordinates
version=1
nRows=8
nColumns=33
inDegrees=yes

Units are S.I. units (second, meters, Newtons, ...)
Angles are in degrees.

endheader
time	ground_thorax_rot_x	ground_thorax_rot_y	ground_thorax_rot_z	ground_thorax_tx	ground_thorax_ty	ground_thorax_tz	clav_prot_r	clav_elev_r	scapula_abduction_r	scapula_elevation_r	scapula_upward_rot_r	scapula_winging_r	shoulder_elv_r	plane_of_elev_r	axial_rot_r	elbow_flexion_r	pro_sup_r	wrist_flex_r	wrist_dev_r	clav_prot_l	clav_elev_l	scapula_abduction_l	scapula_elevation_l	scapula_upward_rot_l	scapula_winging_l	shoulder_elv_l	plane_of_elev_l	axial_rot_l	elbow_flexion_l	pro_sup_l	wrist_flex_l	wrist_dev_l
      8.30000000	    -39.42153634	     -4.93365759	     -1.59248502	     -2.17693904	    807.84755975	      7.48617605	      3.42219282	    -45.00000000	     45.00000000	    -45.00000000	     -4.91153176	  -2966.15620183	  -2097.43832849	     28.96464497	     74.02612650	    369.93636041	     11.65165244	     17.06262281	     11.84857274	     14.42797423	     41.14698225	    -45.00000000	    -38.75033017	    -19.52010629	   2237.50733674	  -2814.41637917	     23.81808127	    -28.17301431	   2165.42580397	     19.57148512	     13.08442688	    -18.08013003
      8.31000000	    -39.29253175	     -4.89555619	     -1.69829377	     -1.60808066	    807.23490923	      7.59125621	      3.86938826	    -45.00000000	     45.00000000	    -45.00000000	     -4.90683187	  -2966.03769423	  -2097.41781648	     28.93399502	     73.79369169	    369.74754122	     11.60954974	     17.25826892	     12.23761609	     13.95944523	     40.72822782	    -45.00000000	    -38.57893614	    -19.35840182	   2237.44027811	  -2814.40344910	     23.76280503	    -28.44073508	   2165.33071027	     19.84903789	     12.67202163	    -18.32398661
      8.32000000	    -39.15976562	     -5.03770900	     -1.66081120	     -1.43347421	    806.72574114	      7.58772328	      3.61796311	    -45.00000000	     45.00000000	    -45.00000000	     -5.01139449	  -2966.01971020	  -2097.40945458	     28.86254365	     73.73458773	    369.71114214	     11.51083153	     17.14029288	     12.17481243	     14.01772857	     40.77667644	    -45.00000000	    -38.34495262	    -19.10280625	   2237.63653502	  -2814.49084363	     23.65860045	    -28.37956708	   2165.33467270	     20.11870520	     12.54864665	    -18.29890363
      8.33000000	    -39.12122669	     -4.91344187	     -1.81908805	     -1.63340754	    806.27711052	      7.47260054	      3.78276438	    -45.00000000	     45.00000000	    -45.00000000	     -4.86057684	  -2966.18032445	  -2097.58566266	     28.87377342	     73.59366935	    369.48492372	     11.38217561	     17.18316797	     12.25032094	     13.86697745	     40.77079647	    -45.00000000	    -38.31569327	    -19.07804122	   2237.71031926	  -2814.38672061	     23.78678449	    -28.34659093	   2165.31434750	     20.37722626	     12.43552782	    -18.46530778
      8.34000000	    -39.04040996	     -5.02800946	     -1.80262647	     -2.19091852	    805.85762209	      7.25352537	      3.53294771	    -45.00000000	     45.00000000	    -45.00000000	     -5.05244336	  -2966.09963078	  -2097.46366952	     28.76098621	     73.61279346	    369.44460509	     11.24797861	     17.01392463	     12.20101199	     13.88701337	     40.84902433	    -45.00000000	    -38.20273833	    -18.85268239	   2237.90401743	  -2814.51634520	     23.70577917	    -28.00734462	   2165.17753024	     20.59328495	     12.41565789	    -18.37006420
      8.35000000	    -39.03992773	     -4.80254161	     -1.99021393	     -3.08286295	    805.44506079	      6.94269394	      3.78053314	    -45.00000000	     45.00000000	    -45.00000000	     -4.90231077	  -2966.49485869	  -2097.67459443	     28.92570470	     73.42395353	    369.20837323	     11.08745578	     17.15670956	     12.29406136	     13.79139433	     40.84676604	    -45.00000000	    -38.37806612	    -19.07822400	   2237.87704185	  -2814.42787585	     23.93257275	    -27.89670926	   2165.12172017	     20.76117781	     12.46219810	    -18.61824054
      8.36000000	    -38.96133474	     -5.05871734	     -1.82732228	     -4.28176145	    805.02810982	      6.55743289	      3.51532830	    -45.00000000	     45.00000000	    -45.00000000	     -5.34142228	  -2966.29052017	  -2097.31432057	     28.67799591	     73.67028541	    369.28242901	     10.97600686	     16.91775523	     12.23666095	     13.84686563	     40.81264061	    -45.00000000	    -38.23573110	    -18.89011377	   2238.15269372	  -2814.58959412	     23.72390350	    -27.39368147	   2164.91574579	     20.82424758	     12.46589514	    -18.40116151
      8.37000000	    -38.99837842	     -4.92924834	     -1.87801003	     -5.75949154	    804.60420836	      6.11769309	      3.77956156	    -45.00000000	     45.00000000	    -45.00000000	     -5.40264909	  -2966.61713086	  -2097.44812195	     28.75638534	     73.68954385	    369.08361218	     10.84500992	     17.06407592	     12.32605014	     13.81172330	     40.86302206	    -45.00000000	    -38.61964374	    -19.34782394	   2238.10221109	  -2814.57235709	     23.83027715	    -27.26992256	   2165.06306431	     20.79655425	     12.52068569	    -18.65656182
